# xmcd
#
# Track frame offsets:
# 150
# 14670
# 29203
# 37995
# 57910
# 74072
# 85261
# 99388
# 114820
# 128832
# 140408
# 157142
# 164577
# 178092
# 195219
#
# Disc length: 3028 seconds
#
# Revision: 1
# Processed by: cddbd v1.5.1PL0 Copyright (c) Steve Scherf et al.
# Submitted via: inCDius 2.0b9
#
DISCID=d30bd20f
DTITLE=Nitty Gritty Dirt Band - Unbroken [CD 2)
DYEAR=1900
DGENRE=
TTITLE0=Heartaches and Heartaches
TTITLE1=Joshua
TTITLE2=Help Me Make It Through the Yard
TTITLE3=Way Downtown
TTITLE4=Bowlegs
TTITLE5=Randy Lynn Rag
TTITLE6=Face on the Factory Floor
TTITLE7=Long Hard Road (Sharecropper's Dream)
TTITLE8=Medley (Shelly's Blues, All I Have to do is Dream)
TTITLE9=House at Pooh corner
TTITLE10=Diggy Liggy Lo
TTITLE11=Jamaica Lady
TTITLE12=High Horse
TTITLE13=Medley (Surfin' USA, Don't You Get Sand In It)
TTITLE14=Medley (Bayou Jubilee, Battle of New Orleans)
EXTD=recorded live in April 1984\nDelta Delux records UK 2003
EXTT0=
EXTT1=
EXTT2=
EXTT3=
EXTT4=
EXTT5=
EXTT6=
EXTT7=
EXTT8=
EXTT9=
EXTT10=
EXTT11=
EXTT12=
EXTT13=
EXTT14=
PLAYORDER=
